<?xml version="1.0" standalone="no"?>
<!DOCTYPE svg PUBLIC "-//W3C//DTD SVG 20010904//EN"
 "http://www.w3.org/TR/2001/REC-SVG-20010904/DTD/svg10.dtd">
<svg version="1.0" xmlns="http://www.w3.org/2000/svg"
 width="310.000000pt" height="310.000000pt" viewBox="0 0 310.000000 310.000000"
 preserveAspectRatio="xMidYMid meet">
<metadata>
Created by potrace 1.11, written by Peter Selinger 2001-2013
</metadata>
<g transform="translate(0.000000,310.000000) scale(0.100000,-0.100000)"
fill="#000000" stroke="none">
<path d="M0 1550 l0 -1550 1550 0 1550 0 0 1550 0 1550 -1550 0 -1550 0 0
-1550z m3020 0 l0 -1470 -1470 0 -1470 0 0 1470 0 1470 1470 0 1470 0 0 -1470z"/>
<path d="M2355 2715 c-74 -115 -85 -138 -85 -180 l0 -35 90 0 90 0 0 -35 c0
-34 1 -35 40 -35 39 0 40 1 40 35 0 31 3 35 26 35 23 0 25 3 22 33 -2 24 -8
33 -25 35 -22 3 -23 7 -23 118 l0 114 -60 0 -60 0 -55 -85z m95 -70 l0 -85
-50 0 c-27 0 -50 3 -50 7 0 8 92 163 97 163 2 0 3 -38 3 -85z"/>
<path d="M2592 2768 l3 -33 88 -3 c48 -1 87 -5 87 -8 0 -3 -31 -65 -70 -138
-38 -73 -70 -138 -70 -144 0 -7 16 -12 40 -12 l40 0 75 150 c51 101 75 161 75
185 l0 35 -136 0 -135 0 3 -32z"/>
<path d="M671 1522 c-118 -339 -216 -623 -219 -629 -3 -10 28 -13 135 -13
l139 0 46 148 46 147 219 3 219 2 45 -147 45 -148 142 -3 c78 -1 142 0 142 4
0 4 -98 287 -217 630 l-217 624 -155 0 -156 0 -214 -618z m444 121 c41 -132
75 -243 75 -247 0 -3 -70 -6 -156 -6 -120 0 -155 3 -151 13 2 6 38 118 78 249
41 130 75 235 76 234 1 -1 36 -110 78 -243z"/>
<path d="M1935 1817 c-147 -49 -232 -162 -263 -354 -38 -232 42 -452 195 -535
139 -76 333 -46 429 66 l34 40 0 -95 c0 -112 -21 -160 -85 -196 -85 -48 -241
-21 -282 48 l-17 29 -128 0 -128 0 6 -27 c22 -95 107 -184 211 -223 223 -83
503 -25 620 129 62 80 63 93 63 633 l0 489 -127 -3 -128 -3 -3 -68 -3 -69 -41
47 c-61 70 -125 98 -228 102 -52 2 -101 -2 -125 -10z m302 -233 c21 -17 49
-52 63 -80 22 -43 25 -62 25 -154 0 -98 -2 -109 -29 -158 -39 -69 -92 -102
-165 -102 -129 0 -200 94 -201 266 0 80 24 156 63 201 43 49 80 64 149 60 46
-3 65 -9 95 -33z"/>
</g>
</svg>
